<?xml version="1.0" encoding="UTF-8"?>
<!DOCTYPE svg PUBLIC "-//W3C//DTD SVG 1.1//EN" "http://www.w3.org/Graphics/SVG/1.1/DTD/svg11.dtd">
<!-- Creator: CorelDRAW 2021 (64 Bit) -->
<svg xmlns="http://www.w3.org/2000/svg" xml:space="preserve" width="5.4652mm" height="5.08mm" version="1.1" style="shape-rendering:geometricPrecision; text-rendering:geometricPrecision; image-rendering:optimizeQuality; fill-rule:evenodd; clip-rule:evenodd"
viewBox="0 0 6.3 5.85"
 xmlns:xlink="http://www.w3.org/1999/xlink"
 xmlns:xodm="http://www.corel.com/coreldraw/odm/2003">
 <defs>
  <style type="text/css">
   <![CDATA[
    .fil0 {fill:#90908E;fill-rule:nonzero}
   ]]>
  </style>
 </defs>
 <g id="Camada_x0020_1">
  <metadata id="CorelCorpID_0Corel-Layer"/>
  <g id="_2535072614384">
   <path class="fil0" d="M6.08 3.45c0,0.12 -0.1,0.22 -0.21,0.22l-1.95 0 0 -0.2c0,-0.24 -0.19,-0.43 -0.43,-0.43l-0.77 0c-0.24,0 -0.43,0.19 -0.43,0.43l0 0.2 -1.87 0c-0.12,0 -0.22,-0.1 -0.22,-0.22l0 -1.93c0,-0.12 0.1,-0.22 0.22,-0.22l1.44 0c0,0.11 0.11,0.2 0.26,0.2 0.14,0 0.25,-0.09 0.26,-0.2l1.54 0c0,0.11 0.11,0.2 0.26,0.2 0.14,0 0.25,-0.09 0.26,-0.2l1.44 0c0.12,0 0.21,0.1 0.21,0.22l0 1.93zm-3.57 0.62l0 -0.6c0,-0.12 0.1,-0.22 0.22,-0.22l0.77 0c0.12,0 0.21,0.1 0.21,0.22l0 0.6c0,0.12 -0.1,0.22 -0.21,0.22l-0.77 0c-0.12,0 -0.22,-0.1 -0.22,-0.22zm3.17 1.35c0,0.12 -0.08,0.22 -0.17,0.22l-4.72 0c-0.09,0 -0.17,-0.1 -0.17,-0.22l0 -1.54 1.68 0 0 0.2c0,0.24 0.19,0.43 0.43,0.43l0.77 0c0.24,0 0.43,-0.19 0.43,-0.43l0 -0.2 1.76 0 0 1.54zm-1.76 -4.85l0 0.51 -1.54 0 0 -0.51 1.54 0zm-1.84 -0.35c0.01,-0.01 0.03,-0.01 0.05,-0.01 0.01,0 0.01,0 0.02,-0 0,-0 0,-0 0.01,-0l1.93 0c0,0 0.01,0 0.02,0 0.01,0 0.03,0 0.05,0 0.03,-0.01 0.06,0 0.07,0.01l0 1.06c-0.01,0 -0.02,0.01 -0.04,0.01 -0.02,0 -0.04,-0 -0.04,-0.01l0 -0.81c0,-0.06 -0.05,-0.11 -0.11,-0.11l-1.75 0c-0.06,0 -0.11,0.05 -0.11,0.11l0 0.81c-0.01,0 -0.02,0.01 -0.04,0.01 -0.02,0 -0.03,-0 -0.04,-0.01l0 -1.06zm3.79 0.86l-1.44 0 0 -0.88c0,-0.12 -0.11,-0.21 -0.26,-0.21 -0.02,0 -0.03,0 -0.05,0 -0.01,-0 -0.03,-0 -0.04,-0l-1.93 0c-0,0 -0.01,0 -0.02,0 -0,-0 -0.01,-0 -0.02,-0 -0.14,0 -0.26,0.09 -0.26,0.21l0 0.88 -1.43 0c-0.24,0 -0.43,0.19 -0.43,0.43l0 1.93c0,0.23 0.18,0.41 0.4,0.43l0 1.55c0,0.24 0.17,0.43 0.39,0.43l4.72 0c0.21,0 0.39,-0.19 0.39,-0.43l0 -1.55c0.22,-0.01 0.4,-0.2 0.4,-0.43l0 -1.93c0,-0.24 -0.19,-0.43 -0.43,-0.43z"/>
   <path class="fil0" d="M3.11 3.5c0.15,0 0.27,0.12 0.27,0.27 0,0.15 -0.12,0.27 -0.27,0.27 -0.15,0 -0.27,-0.12 -0.27,-0.27 0,-0.15 0.12,-0.27 0.27,-0.27zm0 0.64c0.21,0 0.38,-0.17 0.38,-0.38 0,-0.21 -0.17,-0.38 -0.38,-0.38 -0.21,0 -0.38,0.17 -0.38,0.38 0,0.21 0.17,0.38 0.38,0.38z"/>
  </g>
 </g>
</svg>
